<svg width="24" height="24" viewBox="0 0 24 24" fill="none" xmlns="http://www.w3.org/2000/svg">
<path d="M22.3902 21.33L18.5502 17.49C20.0966 15.6699 20.8791 13.3223 20.7339 10.9384C20.5886 8.55448 19.527 6.31914 17.7711 4.70022C16.0152 3.08129 13.7012 2.20427 11.3134 2.2527C8.92558 2.30113 6.64903 3.27126 4.96024 4.96006C3.27145 6.64885 2.30131 8.9254 2.25288 11.3132C2.20445 13.701 3.08148 16.0151 4.7004 17.7709C6.31933 19.5268 8.55466 20.5885 10.9386 20.7337C13.3225 20.8789 15.6701 20.0964 17.4902 18.55L21.3302 22.39C21.348 22.4094 21.3696 22.4249 21.3937 22.4355C21.4178 22.4461 21.4439 22.4516 21.4702 22.4516C21.4965 22.4516 21.5226 22.4461 21.5467 22.4355C21.5708 22.4249 21.5924 22.4094 21.6102 22.39L22.3902 21.61C22.4096 21.5922 22.4251 21.5706 22.4357 21.5465C22.4463 21.5224 22.4518 21.4964 22.4518 21.47C22.4518 21.4437 22.4463 21.4177 22.4357 21.3936C22.4251 21.3695 22.4096 21.3478 22.3902 21.33ZM3.75021 11.5C3.75021 9.96722 4.20474 8.46884 5.05632 7.19436C5.9079 5.91987 7.11828 4.92654 8.53441 4.33996C9.95054 3.75338 11.5088 3.5999 13.0122 3.89894C14.5155 4.19797 15.8964 4.93609 16.9803 6.01995C18.0641 7.1038 18.8023 8.48472 19.1013 9.98808C19.4003 11.4914 19.2469 13.0497 18.6603 14.4658C18.0737 15.8819 17.0804 17.0923 15.8059 17.9439C14.5314 18.7955 13.033 19.25 11.5002 19.25C9.44559 19.2474 7.47589 18.43 6.02305 16.9772C4.57022 15.5243 3.75285 13.5546 3.75021 11.5Z" fill="#1A1A1A"/>
</svg>
