<svg width="12" height="14" viewBox="0 0 12 14" fill="none" xmlns="http://www.w3.org/2000/svg">
<path d="M6.00008 0.333313C4.58559 0.333313 3.22904 0.895216 2.22885 1.89541C1.22865 2.8956 0.666748 4.25216 0.666748 5.66665C0.666748 9.66665 6.00008 13.6666 6.00008 13.6666C6.00008 13.6666 11.3334 9.66665 11.3334 5.66665C11.3334 4.25216 10.7715 2.8956 9.77132 1.89541C8.77112 0.895216 7.41457 0.333313 6.00008 0.333313ZM6.00008 6.99998C5.67177 7.0013 5.35044 6.90523 5.07672 6.72392C4.80301 6.54261 4.58921 6.28421 4.46235 5.9814C4.33549 5.67858 4.30128 5.34494 4.36404 5.02268C4.4268 4.70042 4.58371 4.404 4.81493 4.17092C5.04615 3.93783 5.34129 3.77855 5.66304 3.7132C5.98479 3.64786 6.31869 3.67939 6.62251 3.80381C6.92634 3.92823 7.18645 4.13995 7.36995 4.4122C7.55345 4.68445 7.65209 5.005 7.65341 5.33331C7.65517 5.55155 7.61371 5.76798 7.53141 5.97011C7.44911 6.17225 7.32761 6.35608 7.1739 6.51103C7.0202 6.66597 6.83734 6.78894 6.63588 6.87286C6.43441 6.95678 6.21833 6.99999 6.00008 6.99998Z" fill="#999999"/>
</svg>
