<svg width="20" height="20" viewBox="0 0 20 20" fill="none" xmlns="http://www.w3.org/2000/svg">
<path d="M18.7702 1.50999C18.056 0.828963 17.107 0.449036 16.1202 0.449036C15.1333 0.449036 14.1844 0.828963 13.4702 1.50999L1.27019 13.71L0.510187 18.76C0.480366 18.9004 0.485761 19.0461 0.525893 19.1839C0.566024 19.3217 0.639644 19.4475 0.740187 19.55C0.84316 19.6501 0.968606 19.7242 1.10604 19.7659C1.24348 19.8077 1.38891 19.8159 1.53019 19.79L6.53019 19.02L18.7302 6.81999C19.0798 6.47309 19.3571 6.06022 19.546 5.60531C19.7348 5.1504 19.8314 4.66253 19.8302 4.16999C19.8415 3.17822 19.4605 2.22215 18.7702 1.50999ZM5.86019 17.61L2.10019 18.18L2.68019 14.43L12.5902 4.51999L15.7702 7.69999L5.86019 17.61ZM17.7102 5.75999L16.8302 6.63999L13.6502 3.45999L14.5302 2.57999C14.9582 2.17046 15.5278 1.94189 16.1202 1.94189C16.7126 1.94189 17.2821 2.17046 17.7102 2.57999C17.9205 2.78772 18.0872 3.03537 18.2006 3.30841C18.3139 3.58145 18.3716 3.87437 18.3702 4.16999C18.3675 4.76609 18.1304 5.33721 17.7102 5.75999Z" fill="#1A1A1A"/>
</svg>
